<svg xmlns="http://www.w3.org/2000/svg" viewBox="0 24 160 80" width="160" height="80" shape-rendering="crispEdges" text-rendering="geometricPrecision" overflow="hidden">
<title>Track Menu</title>
<desc>Vector recreation of the ESP32 WROVER mini DAW TFT UI.</desc>
<style>text { letter-spacing: 0; }</style>
<rect x="0" y="24" width="160" height="80" fill="#000000"/>
<rect x="0" y="24" width="44" height="80" fill="#08232d"/>
<rect x="0" y="24" width="44" height="10" fill="#08232d"/>
<text x="2" y="25" fill="#dcf5ff" font-size="7" font-family="Courier New, Menlo, monospace" dominant-baseline="text-before-edge">Mute</text>
<rect x="0" y="34" width="44" height="10" fill="#ff9600"/>
<text x="2" y="35" fill="#dcf5ff" font-size="7" font-family="Courier New, Menlo, monospace" dominant-baseline="text-before-edge">Record</text>
<rect x="0" y="44" width="44" height="10" fill="#08232d"/>
<text x="2" y="45" fill="#dcf5ff" font-size="7" font-family="Courier New, Menlo, monospace" dominant-baseline="text-before-edge">Vol</text>
<rect x="0" y="54" width="44" height="10" fill="#08232d"/>
<text x="2" y="55" fill="#dcf5ff" font-size="7" font-family="Courier New, Menlo, monospace" dominant-baseline="text-before-edge">OSC</text>
<rect x="0" y="84" width="44" height="10" fill="#08232d"/>
<text x="2" y="85" fill="#dcf5ff" font-size="7" font-family="Courier New, Menlo, monospace" dominant-baseline="text-before-edge">T1</text>
<rect x="45" y="24" width="115" height="55" fill="#000000"/>
<rect x="47" y="27" width="6" height="9" fill="#50d2f0"/>
<rect x="47" y="27" width="6" height="1" fill="#4696aa"/>
<rect x="47" y="35" width="6" height="1" fill="#4696aa"/>
<rect x="47" y="28" width="1" height="7" fill="#4696aa"/>
<rect x="52" y="28" width="1" height="7" fill="#4696aa"/>
<rect x="54" y="27" width="6" height="9" fill="#195a73"/>
<rect x="54" y="27" width="6" height="1" fill="#4696aa"/>
<rect x="54" y="35" width="6" height="1" fill="#4696aa"/>
<rect x="54" y="28" width="1" height="7" fill="#4696aa"/>
<rect x="59" y="28" width="1" height="7" fill="#4696aa"/>
<rect x="61" y="27" width="6" height="9" fill="#195a73"/>
<rect x="61" y="27" width="6" height="1" fill="#4696aa"/>
<rect x="61" y="35" width="6" height="1" fill="#4696aa"/>
<rect x="61" y="28" width="1" height="7" fill="#4696aa"/>
<rect x="66" y="28" width="1" height="7" fill="#4696aa"/>
<rect x="68" y="27" width="6" height="9" fill="#195a73"/>
<rect x="68" y="27" width="6" height="1" fill="#4696aa"/>
<rect x="68" y="35" width="6" height="1" fill="#4696aa"/>
<rect x="68" y="28" width="1" height="7" fill="#4696aa"/>
<rect x="73" y="28" width="1" height="7" fill="#4696aa"/>
<rect x="75" y="27" width="6" height="9" fill="#50d2f0"/>
<rect x="75" y="27" width="6" height="1" fill="#4696aa"/>
<rect x="75" y="35" width="6" height="1" fill="#4696aa"/>
<rect x="75" y="28" width="1" height="7" fill="#4696aa"/>
<rect x="80" y="28" width="1" height="7" fill="#4696aa"/>
<rect x="82" y="27" width="6" height="9" fill="#195a73"/>
<rect x="82" y="27" width="6" height="1" fill="#4696aa"/>
<rect x="82" y="35" width="6" height="1" fill="#4696aa"/>
<rect x="82" y="28" width="1" height="7" fill="#4696aa"/>
<rect x="87" y="28" width="1" height="7" fill="#4696aa"/>
<rect x="89" y="27" width="6" height="9" fill="#195a73"/>
<rect x="89" y="27" width="6" height="1" fill="#4696aa"/>
<rect x="89" y="35" width="6" height="1" fill="#4696aa"/>
<rect x="89" y="28" width="1" height="7" fill="#4696aa"/>
<rect x="94" y="28" width="1" height="7" fill="#4696aa"/>
<rect x="96" y="27" width="6" height="9" fill="#195a73"/>
<rect x="96" y="27" width="6" height="1" fill="#4696aa"/>
<rect x="96" y="35" width="6" height="1" fill="#4696aa"/>
<rect x="96" y="28" width="1" height="7" fill="#4696aa"/>
<rect x="101" y="28" width="1" height="7" fill="#4696aa"/>
<rect x="103" y="27" width="6" height="9" fill="#50d2f0"/>
<rect x="103" y="27" width="6" height="1" fill="#4696aa"/>
<rect x="103" y="35" width="6" height="1" fill="#4696aa"/>
<rect x="103" y="28" width="1" height="7" fill="#4696aa"/>
<rect x="108" y="28" width="1" height="7" fill="#4696aa"/>
<rect x="110" y="27" width="6" height="9" fill="#195a73"/>
<rect x="110" y="27" width="6" height="1" fill="#4696aa"/>
<rect x="110" y="35" width="6" height="1" fill="#4696aa"/>
<rect x="110" y="28" width="1" height="7" fill="#4696aa"/>
<rect x="115" y="28" width="1" height="7" fill="#4696aa"/>
<rect x="117" y="27" width="6" height="9" fill="#195a73"/>
<rect x="117" y="27" width="6" height="1" fill="#4696aa"/>
<rect x="117" y="35" width="6" height="1" fill="#4696aa"/>
<rect x="117" y="28" width="1" height="7" fill="#4696aa"/>
<rect x="122" y="28" width="1" height="7" fill="#4696aa"/>
<rect x="124" y="27" width="6" height="9" fill="#195a73"/>
<rect x="124" y="27" width="6" height="1" fill="#4696aa"/>
<rect x="124" y="35" width="6" height="1" fill="#4696aa"/>
<rect x="124" y="28" width="1" height="7" fill="#4696aa"/>
<rect x="129" y="28" width="1" height="7" fill="#4696aa"/>
<rect x="131" y="27" width="6" height="9" fill="#50d2f0"/>
<rect x="131" y="27" width="6" height="1" fill="#4696aa"/>
<rect x="131" y="35" width="6" height="1" fill="#4696aa"/>
<rect x="131" y="28" width="1" height="7" fill="#4696aa"/>
<rect x="136" y="28" width="1" height="7" fill="#4696aa"/>
<rect x="138" y="27" width="6" height="9" fill="#195a73"/>
<rect x="138" y="27" width="6" height="1" fill="#4696aa"/>
<rect x="138" y="35" width="6" height="1" fill="#4696aa"/>
<rect x="138" y="28" width="1" height="7" fill="#4696aa"/>
<rect x="143" y="28" width="1" height="7" fill="#4696aa"/>
<rect x="145" y="27" width="6" height="9" fill="#195a73"/>
<rect x="145" y="27" width="6" height="1" fill="#4696aa"/>
<rect x="145" y="35" width="6" height="1" fill="#4696aa"/>
<rect x="145" y="28" width="1" height="7" fill="#4696aa"/>
<rect x="150" y="28" width="1" height="7" fill="#4696aa"/>
<rect x="152" y="27" width="6" height="9" fill="#195a73"/>
<rect x="152" y="27" width="6" height="1" fill="#4696aa"/>
<rect x="152" y="35" width="6" height="1" fill="#4696aa"/>
<rect x="152" y="28" width="1" height="7" fill="#4696aa"/>
<rect x="157" y="28" width="1" height="7" fill="#4696aa"/>
<rect x="47" y="40" width="6" height="9" fill="#195a73"/>
<rect x="47" y="40" width="6" height="1" fill="#4696aa"/>
<rect x="47" y="48" width="6" height="1" fill="#4696aa"/>
<rect x="47" y="41" width="1" height="7" fill="#4696aa"/>
<rect x="52" y="41" width="1" height="7" fill="#4696aa"/>
<rect x="54" y="40" width="6" height="9" fill="#195a73"/>
<rect x="54" y="40" width="6" height="1" fill="#4696aa"/>
<rect x="54" y="48" width="6" height="1" fill="#4696aa"/>
<rect x="54" y="41" width="1" height="7" fill="#4696aa"/>
<rect x="59" y="41" width="1" height="7" fill="#4696aa"/>
<rect x="61" y="40" width="6" height="9" fill="#50d2f0"/>
<rect x="61" y="40" width="6" height="1" fill="#4696aa"/>
<rect x="61" y="48" width="6" height="1" fill="#4696aa"/>
<rect x="61" y="41" width="1" height="7" fill="#4696aa"/>
<rect x="66" y="41" width="1" height="7" fill="#4696aa"/>
<rect x="68" y="40" width="6" height="9" fill="#195a73"/>
<rect x="68" y="40" width="6" height="1" fill="#4696aa"/>
<rect x="68" y="48" width="6" height="1" fill="#4696aa"/>
<rect x="68" y="41" width="1" height="7" fill="#4696aa"/>
<rect x="73" y="41" width="1" height="7" fill="#4696aa"/>
<rect x="75" y="40" width="6" height="9" fill="#195a73"/>
<rect x="75" y="40" width="6" height="1" fill="#4696aa"/>
<rect x="75" y="48" width="6" height="1" fill="#4696aa"/>
<rect x="75" y="41" width="1" height="7" fill="#4696aa"/>
<rect x="80" y="41" width="1" height="7" fill="#4696aa"/>
<rect x="82" y="40" width="6" height="9" fill="#195a73"/>
<rect x="82" y="40" width="6" height="1" fill="#4696aa"/>
<rect x="82" y="48" width="6" height="1" fill="#4696aa"/>
<rect x="82" y="41" width="1" height="7" fill="#4696aa"/>
<rect x="87" y="41" width="1" height="7" fill="#4696aa"/>
<rect x="89" y="40" width="6" height="9" fill="#50d2f0"/>
<rect x="89" y="40" width="6" height="1" fill="#4696aa"/>
<rect x="89" y="48" width="6" height="1" fill="#4696aa"/>
<rect x="89" y="41" width="1" height="7" fill="#4696aa"/>
<rect x="94" y="41" width="1" height="7" fill="#4696aa"/>
<rect x="96" y="40" width="6" height="9" fill="#195a73"/>
<rect x="96" y="40" width="6" height="1" fill="#4696aa"/>
<rect x="96" y="48" width="6" height="1" fill="#4696aa"/>
<rect x="96" y="41" width="1" height="7" fill="#4696aa"/>
<rect x="101" y="41" width="1" height="7" fill="#4696aa"/>
<rect x="103" y="40" width="6" height="9" fill="#195a73"/>
<rect x="103" y="40" width="6" height="1" fill="#4696aa"/>
<rect x="103" y="48" width="6" height="1" fill="#4696aa"/>
<rect x="103" y="41" width="1" height="7" fill="#4696aa"/>
<rect x="108" y="41" width="1" height="7" fill="#4696aa"/>
<rect x="110" y="40" width="6" height="9" fill="#195a73"/>
<rect x="110" y="40" width="6" height="1" fill="#4696aa"/>
<rect x="110" y="48" width="6" height="1" fill="#4696aa"/>
<rect x="110" y="41" width="1" height="7" fill="#4696aa"/>
<rect x="115" y="41" width="1" height="7" fill="#4696aa"/>
<rect x="117" y="40" width="6" height="9" fill="#50d2f0"/>
<rect x="117" y="40" width="6" height="1" fill="#4696aa"/>
<rect x="117" y="48" width="6" height="1" fill="#4696aa"/>
<rect x="117" y="41" width="1" height="7" fill="#4696aa"/>
<rect x="122" y="41" width="1" height="7" fill="#4696aa"/>
<rect x="124" y="40" width="6" height="9" fill="#195a73"/>
<rect x="124" y="40" width="6" height="1" fill="#4696aa"/>
<rect x="124" y="48" width="6" height="1" fill="#4696aa"/>
<rect x="124" y="41" width="1" height="7" fill="#4696aa"/>
<rect x="129" y="41" width="1" height="7" fill="#4696aa"/>
<rect x="131" y="40" width="6" height="9" fill="#195a73"/>
<rect x="131" y="40" width="6" height="1" fill="#4696aa"/>
<rect x="131" y="48" width="6" height="1" fill="#4696aa"/>
<rect x="131" y="41" width="1" height="7" fill="#4696aa"/>
<rect x="136" y="41" width="1" height="7" fill="#4696aa"/>
<rect x="138" y="40" width="6" height="9" fill="#195a73"/>
<rect x="138" y="40" width="6" height="1" fill="#4696aa"/>
<rect x="138" y="48" width="6" height="1" fill="#4696aa"/>
<rect x="138" y="41" width="1" height="7" fill="#4696aa"/>
<rect x="143" y="41" width="1" height="7" fill="#4696aa"/>
<rect x="145" y="40" width="6" height="9" fill="#50d2f0"/>
<rect x="145" y="40" width="6" height="1" fill="#4696aa"/>
<rect x="145" y="48" width="6" height="1" fill="#4696aa"/>
<rect x="145" y="41" width="1" height="7" fill="#4696aa"/>
<rect x="150" y="41" width="1" height="7" fill="#4696aa"/>
<rect x="152" y="40" width="6" height="9" fill="#195a73"/>
<rect x="152" y="40" width="6" height="1" fill="#4696aa"/>
<rect x="152" y="48" width="6" height="1" fill="#4696aa"/>
<rect x="152" y="41" width="1" height="7" fill="#4696aa"/>
<rect x="157" y="41" width="1" height="7" fill="#4696aa"/>
<rect x="47" y="53" width="6" height="9" fill="#50d2f0"/>
<rect x="47" y="53" width="6" height="1" fill="#4696aa"/>
<rect x="47" y="61" width="6" height="1" fill="#4696aa"/>
<rect x="47" y="54" width="1" height="7" fill="#4696aa"/>
<rect x="52" y="54" width="1" height="7" fill="#4696aa"/>
<rect x="54" y="53" width="6" height="9" fill="#195a73"/>
<rect x="54" y="53" width="6" height="1" fill="#4696aa"/>
<rect x="54" y="61" width="6" height="1" fill="#4696aa"/>
<rect x="54" y="54" width="1" height="7" fill="#4696aa"/>
<rect x="59" y="54" width="1" height="7" fill="#4696aa"/>
<rect x="61" y="53" width="6" height="9" fill="#195a73"/>
<rect x="61" y="53" width="6" height="1" fill="#4696aa"/>
<rect x="61" y="61" width="6" height="1" fill="#4696aa"/>
<rect x="61" y="54" width="1" height="7" fill="#4696aa"/>
<rect x="66" y="54" width="1" height="7" fill="#4696aa"/>
<rect x="68" y="53" width="6" height="9" fill="#195a73"/>
<rect x="68" y="53" width="6" height="1" fill="#4696aa"/>
<rect x="68" y="61" width="6" height="1" fill="#4696aa"/>
<rect x="68" y="54" width="1" height="7" fill="#4696aa"/>
<rect x="73" y="54" width="1" height="7" fill="#4696aa"/>
<rect x="75" y="53" width="6" height="9" fill="#195a73"/>
<rect x="75" y="53" width="6" height="1" fill="#4696aa"/>
<rect x="75" y="61" width="6" height="1" fill="#4696aa"/>
<rect x="75" y="54" width="1" height="7" fill="#4696aa"/>
<rect x="80" y="54" width="1" height="7" fill="#4696aa"/>
<rect x="82" y="53" width="6" height="9" fill="#195a73"/>
<rect x="82" y="53" width="6" height="1" fill="#4696aa"/>
<rect x="82" y="61" width="6" height="1" fill="#4696aa"/>
<rect x="82" y="54" width="1" height="7" fill="#4696aa"/>
<rect x="87" y="54" width="1" height="7" fill="#4696aa"/>
<rect x="89" y="53" width="6" height="9" fill="#195a73"/>
<rect x="89" y="53" width="6" height="1" fill="#4696aa"/>
<rect x="89" y="61" width="6" height="1" fill="#4696aa"/>
<rect x="89" y="54" width="1" height="7" fill="#4696aa"/>
<rect x="94" y="54" width="1" height="7" fill="#4696aa"/>
<rect x="96" y="53" width="6" height="9" fill="#195a73"/>
<rect x="96" y="53" width="6" height="1" fill="#4696aa"/>
<rect x="96" y="61" width="6" height="1" fill="#4696aa"/>
<rect x="96" y="54" width="1" height="7" fill="#4696aa"/>
<rect x="101" y="54" width="1" height="7" fill="#4696aa"/>
<rect x="103" y="53" width="6" height="9" fill="#50d2f0"/>
<rect x="103" y="53" width="6" height="1" fill="#4696aa"/>
<rect x="103" y="61" width="6" height="1" fill="#4696aa"/>
<rect x="103" y="54" width="1" height="7" fill="#4696aa"/>
<rect x="108" y="54" width="1" height="7" fill="#4696aa"/>
<rect x="110" y="53" width="6" height="9" fill="#195a73"/>
<rect x="110" y="53" width="6" height="1" fill="#4696aa"/>
<rect x="110" y="61" width="6" height="1" fill="#4696aa"/>
<rect x="110" y="54" width="1" height="7" fill="#4696aa"/>
<rect x="115" y="54" width="1" height="7" fill="#4696aa"/>
<rect x="117" y="53" width="6" height="9" fill="#195a73"/>
<rect x="117" y="53" width="6" height="1" fill="#4696aa"/>
<rect x="117" y="61" width="6" height="1" fill="#4696aa"/>
<rect x="117" y="54" width="1" height="7" fill="#4696aa"/>
<rect x="122" y="54" width="1" height="7" fill="#4696aa"/>
<rect x="124" y="53" width="6" height="9" fill="#195a73"/>
<rect x="124" y="53" width="6" height="1" fill="#4696aa"/>
<rect x="124" y="61" width="6" height="1" fill="#4696aa"/>
<rect x="124" y="54" width="1" height="7" fill="#4696aa"/>
<rect x="129" y="54" width="1" height="7" fill="#4696aa"/>
<rect x="131" y="53" width="6" height="9" fill="#195a73"/>
<rect x="131" y="53" width="6" height="1" fill="#4696aa"/>
<rect x="131" y="61" width="6" height="1" fill="#4696aa"/>
<rect x="131" y="54" width="1" height="7" fill="#4696aa"/>
<rect x="136" y="54" width="1" height="7" fill="#4696aa"/>
<rect x="138" y="53" width="6" height="9" fill="#195a73"/>
<rect x="138" y="53" width="6" height="1" fill="#4696aa"/>
<rect x="138" y="61" width="6" height="1" fill="#4696aa"/>
<rect x="138" y="54" width="1" height="7" fill="#4696aa"/>
<rect x="143" y="54" width="1" height="7" fill="#4696aa"/>
<rect x="145" y="53" width="6" height="9" fill="#195a73"/>
<rect x="145" y="53" width="6" height="1" fill="#4696aa"/>
<rect x="145" y="61" width="6" height="1" fill="#4696aa"/>
<rect x="145" y="54" width="1" height="7" fill="#4696aa"/>
<rect x="150" y="54" width="1" height="7" fill="#4696aa"/>
<rect x="152" y="53" width="6" height="9" fill="#195a73"/>
<rect x="152" y="53" width="6" height="1" fill="#4696aa"/>
<rect x="152" y="61" width="6" height="1" fill="#4696aa"/>
<rect x="152" y="54" width="1" height="7" fill="#4696aa"/>
<rect x="157" y="54" width="1" height="7" fill="#4696aa"/>
<rect x="47" y="66" width="6" height="9" fill="#195a73"/>
<rect x="47" y="66" width="6" height="1" fill="#4696aa"/>
<rect x="47" y="74" width="6" height="1" fill="#4696aa"/>
<rect x="47" y="67" width="1" height="7" fill="#4696aa"/>
<rect x="52" y="67" width="1" height="7" fill="#4696aa"/>
<rect x="54" y="66" width="6" height="9" fill="#195a73"/>
<rect x="54" y="66" width="6" height="1" fill="#4696aa"/>
<rect x="54" y="74" width="6" height="1" fill="#4696aa"/>
<rect x="54" y="67" width="1" height="7" fill="#4696aa"/>
<rect x="59" y="67" width="1" height="7" fill="#4696aa"/>
<rect x="61" y="66" width="6" height="9" fill="#195a73"/>
<rect x="61" y="66" width="6" height="1" fill="#4696aa"/>
<rect x="61" y="74" width="6" height="1" fill="#4696aa"/>
<rect x="61" y="67" width="1" height="7" fill="#4696aa"/>
<rect x="66" y="67" width="1" height="7" fill="#4696aa"/>
<rect x="68" y="66" width="6" height="9" fill="#50d2f0"/>
<rect x="68" y="66" width="6" height="1" fill="#4696aa"/>
<rect x="68" y="74" width="6" height="1" fill="#4696aa"/>
<rect x="68" y="67" width="1" height="7" fill="#4696aa"/>
<rect x="73" y="67" width="1" height="7" fill="#4696aa"/>
<rect x="75" y="66" width="6" height="9" fill="#195a73"/>
<rect x="75" y="66" width="6" height="1" fill="#4696aa"/>
<rect x="75" y="74" width="6" height="1" fill="#4696aa"/>
<rect x="75" y="67" width="1" height="7" fill="#4696aa"/>
<rect x="80" y="67" width="1" height="7" fill="#4696aa"/>
<rect x="82" y="66" width="6" height="9" fill="#195a73"/>
<rect x="82" y="66" width="6" height="1" fill="#4696aa"/>
<rect x="82" y="74" width="6" height="1" fill="#4696aa"/>
<rect x="82" y="67" width="1" height="7" fill="#4696aa"/>
<rect x="87" y="67" width="1" height="7" fill="#4696aa"/>
<rect x="89" y="66" width="6" height="9" fill="#195a73"/>
<rect x="89" y="66" width="6" height="1" fill="#4696aa"/>
<rect x="89" y="74" width="6" height="1" fill="#4696aa"/>
<rect x="89" y="67" width="1" height="7" fill="#4696aa"/>
<rect x="94" y="67" width="1" height="7" fill="#4696aa"/>
<rect x="96" y="66" width="6" height="9" fill="#50d2f0"/>
<rect x="96" y="66" width="6" height="1" fill="#4696aa"/>
<rect x="96" y="74" width="6" height="1" fill="#4696aa"/>
<rect x="96" y="67" width="1" height="7" fill="#4696aa"/>
<rect x="101" y="67" width="1" height="7" fill="#4696aa"/>
<rect x="103" y="66" width="6" height="9" fill="#195a73"/>
<rect x="103" y="66" width="6" height="1" fill="#4696aa"/>
<rect x="103" y="74" width="6" height="1" fill="#4696aa"/>
<rect x="103" y="67" width="1" height="7" fill="#4696aa"/>
<rect x="108" y="67" width="1" height="7" fill="#4696aa"/>
<rect x="110" y="66" width="6" height="9" fill="#195a73"/>
<rect x="110" y="66" width="6" height="1" fill="#4696aa"/>
<rect x="110" y="74" width="6" height="1" fill="#4696aa"/>
<rect x="110" y="67" width="1" height="7" fill="#4696aa"/>
<rect x="115" y="67" width="1" height="7" fill="#4696aa"/>
<rect x="117" y="66" width="6" height="9" fill="#195a73"/>
<rect x="117" y="66" width="6" height="1" fill="#4696aa"/>
<rect x="117" y="74" width="6" height="1" fill="#4696aa"/>
<rect x="117" y="67" width="1" height="7" fill="#4696aa"/>
<rect x="122" y="67" width="1" height="7" fill="#4696aa"/>
<rect x="124" y="66" width="6" height="9" fill="#50d2f0"/>
<rect x="124" y="66" width="6" height="1" fill="#4696aa"/>
<rect x="124" y="74" width="6" height="1" fill="#4696aa"/>
<rect x="124" y="67" width="1" height="7" fill="#4696aa"/>
<rect x="129" y="67" width="1" height="7" fill="#4696aa"/>
<rect x="131" y="66" width="6" height="9" fill="#195a73"/>
<rect x="131" y="66" width="6" height="1" fill="#4696aa"/>
<rect x="131" y="74" width="6" height="1" fill="#4696aa"/>
<rect x="131" y="67" width="1" height="7" fill="#4696aa"/>
<rect x="136" y="67" width="1" height="7" fill="#4696aa"/>
<rect x="138" y="66" width="6" height="9" fill="#195a73"/>
<rect x="138" y="66" width="6" height="1" fill="#4696aa"/>
<rect x="138" y="74" width="6" height="1" fill="#4696aa"/>
<rect x="138" y="67" width="1" height="7" fill="#4696aa"/>
<rect x="143" y="67" width="1" height="7" fill="#4696aa"/>
<rect x="145" y="66" width="6" height="9" fill="#195a73"/>
<rect x="145" y="66" width="6" height="1" fill="#4696aa"/>
<rect x="145" y="74" width="6" height="1" fill="#4696aa"/>
<rect x="145" y="67" width="1" height="7" fill="#4696aa"/>
<rect x="150" y="67" width="1" height="7" fill="#4696aa"/>
<rect x="152" y="66" width="6" height="9" fill="#50d2f0"/>
<rect x="152" y="66" width="6" height="1" fill="#4696aa"/>
<rect x="152" y="74" width="6" height="1" fill="#4696aa"/>
<rect x="152" y="67" width="1" height="7" fill="#4696aa"/>
<rect x="157" y="67" width="1" height="7" fill="#4696aa"/>
<rect x="45" y="25" width="115" height="1" fill="#ff9600"/>
<rect x="45" y="37" width="115" height="1" fill="#ff9600"/>
<rect x="45" y="26" width="1" height="11" fill="#ff9600"/>
<rect x="159" y="26" width="1" height="11" fill="#ff9600"/>
<rect x="45" y="80" width="115" height="24" fill="#04141c"/>
<text x="47" y="82" fill="#dcf5ff" font-size="7" font-family="Courier New, Menlo, monospace" dominant-baseline="text-before-edge">BPM120 B4 S01</text>
<text x="47" y="93" fill="#dcf5ff" font-size="7" font-family="Courier New, Menlo, monospace" dominant-baseline="text-before-edge">STOP  T1 MENU</text>
<rect x="0" y="24" width="160" height="1" fill="#222222"/>
<rect x="0" y="103" width="160" height="1" fill="#222222"/>
<rect x="0" y="25" width="1" height="78" fill="#222222"/>
<rect x="159" y="25" width="1" height="78" fill="#222222"/>
</svg>
